<svg xmlns="http://www.w3.org/2000/svg" version="1.1" xmlns:xlink="http://www.w3.org/1999/xlink" xmlns:svgjs="http://svgjs.dev/svgjs" width="1000" height="1125" viewBox="0 0 1000 1125"><g transform="matrix(1,0,0,1,1.7053025658242404e-13,0)"><svg viewBox="0 0 320 360" data-background-color="#ffffff" preserveAspectRatio="xMidYMid meet" height="1125" width="1000" xmlns="http://www.w3.org/2000/svg" xmlns:xlink="http://www.w3.org/1999/xlink"><g id="tight-bounds" transform="matrix(1,0,0,1,0,0)"><svg viewBox="0 0 320 360" height="360" width="320"><g><svg></svg></g><g><svg viewBox="0 0 320 360" height="360" width="320"><g><path d="M20.961 227.22l3.726 4.658-1.863-6.056c-0.466-2.795-3.726 0.466-1.863 1.398M25.153 224.425c1.397 2.329 2.795 4.658 2.795 6.987 0 3.261 2.795 4.658 5.123 5.589-3.261-3.726-5.124-13.974-7.918-12.576M204.017 26.929c7.918 0 15.371-0.932 23.756 0.931 20.495 5.124 37.729 15.371 49.374 29.811l32.606 52.169c1.397 13.042 4.192 27.482 3.726 43.319 3.261 0 2.795-4.658 6.521-5.59-3.726 9.316-5.59 20.961-6.521 34.469-2.329-7.453 0-18.632 0.466-24.687-3.261 5.124-5.124 1.397-5.124-0.932 0.466-3.726-1.397-3.261-2.795-4.658-5.124-4.658-8.384-9.782-12.11-17.7 2.329-6.055 2.795-14.905-4.658-19.563-2.329-1.397-5.124-3.726-6.521-7.453-1.863-5.124-5.124-11.179-4.193-19.097 0.466-2.329-6.987 5.124-11.179 1.863-18.166-12.576-36.332-27.016-58.224-39.127-11.645 0-20.029-4.192-24.221-9.316-3.726-4.658-0.932-10.713 4.658-11.179 3.261 0 6.987-0.932 9.782 0.932 0.466-1.863 2.329-4.192 4.657-4.192M157.904 16.215l0.932 0.466c4.658 0.932 6.987 7.453 12.11 5.124 0 3.261 0.466 6.521-0.466 8.85-1.397 3.726-5.59 3.726-8.85 3.726-31.208-1.863-49.374 11.179-68.471 22.358-5.124 3.261-10.713 5.59-14.906 9.782-20.029 18.632-41.921 35.866-47.045 70.335l-4.192 38.195c-0.466 4.192-5.124 8.384-4.192 13.508l3.26 22.824c-3.261-3.261-5.124 0.932-4.192 2.795 0.466 1.397 2.329 6.055 5.124 1.863 3.726 6.987 7.453 20.495 12.576 26.55 15.837 18.632 36.332 35.4 53.101 52.169 4.192-0.932 7.453-0.932 8.384-3.727 1.397 2.795-1.397 5.59-3.726 6.056 7.453 4.658 15.837 8.85 27.016 9.781 14.44 0.932 27.948 3.261 40.524 6.522 6.521-1.863 13.042-2.795 20.029-3.261 2.329 0 3.726-3.726 6.521-4.658l0.466-4.658c2.795 4.192 2.329-1.397 0.466-4.192 3.261 2.795 4.192 5.124 5.589 6.987 0-1.397 3.726-6.521 3.727-0.466l0.931-6.055c1.397-0.932 1.863 5.124 3.261 0.931 1.397-4.192 4.192-0.932 6.987-2.329-0.932 1.863-0.466 5.59 2.794 3.261l3.727-3.261c2.329 5.59 6.055 3.261 7.918 2.329 20.495-13.042 40.99-28.413 60.553-43.784l-0.466 6.055 2.329-7.453c2.329 2.329 4.192 0.466 5.124-0.931 2.795-4.658 6.521-9.316 12.577-13.508-7.453 20.029-16.303 35.866-27.482 48.908l-4.658 5.59c0 3.261-0.932 7.453-4.658 7.918-1.863 0.466-5.59-0.932-8.384 1.863-1.397 1.863 3.261 5.59-0.466 2.795-3.261-2.329-6.521 0-10.248 0.932-2.795 0.932 1.863 3.726 2.795 5.589 0.932 1.863 1.863 3.726 1.398 6.056l-5.124-5.59c-6.055 3.261-9.782 9.316-14.906 13.974-2.329 1.863-1.397 5.124-1.397 7.918-3.261 0-6.987-0.932-8.85 0.932-1.397 1.863-0.932 4.658-0.932 7.453-4.658-0.466-5.124-7.453-9.315-6.056-4.192 0.932-8.85 1.397-12.577 3.727 2.795 5.59-4.658 2.329-3.726 3.26-6.987-4.192-13.042-7.453-20.495-4.658-15.837-5.124-35.4-2.795-49.84-0.931 0-2.329 0.466-4.658-0.466-5.124-0.932 2.329-3.726 1.397-3.26 1.397-8.85-6.055-17.7-9.782-27.016-14.905-8.384 0.932-16.303-3.261-18.632-5.59-6.521-6.055-13.974-2.795-20.029-4.192-13.042-3.261-17.7-16.769-19.098-26.084-0.932-4.658-4.658-6.521-6.055-6.056-6.055-19.563-15.371-37.263-22.824-55.429-1.863-4.658-1.397-9.316-1.397-14.44 2.329 0.932 4.658 0.466 4.192-2.794-2.329-15.371-7.918-27.016-13.974-38.195 3.261-15.837 3.726-34.469 11.179-48.443 6.521-12.576 18.632-19.098 27.016-29.811 2.795-3.726 2.795-8.85 5.59-12.11 9.316-9.316 18.632-19.098 28.879-27.482 4.658-3.726 10.247 0 17.234-1.397 2.329-8.384 11.645-15.837 20.495-13.508 3.726 0.932 11.179-8.85 13.508-9.782 3.726-1.397 1.863 3.726 1.863 6.987 8.85-6.987 20.961-10.713 32.14-14.906" fill="#ee3e38" fill-rule="nonzero" stroke="none" stroke-width="1" stroke-linecap="butt" stroke-linejoin="miter" stroke-miterlimit="10" stroke-dasharray="" stroke-dashoffset="0" font-family="none" font-weight="none" font-size="none" text-anchor="none" style="mix-blend-mode: normal" data-fill-palette-color="tertiary"></path></g><g transform="matrix(1,0,0,1,64,121.7293950825688)"><svg viewBox="0 0 192 116.5412098348624" height="116.5412098348624" width="192"><g><svg viewBox="0 0 192 116.5412098348624" height="116.5412098348624" width="192"><g><svg viewBox="0 0 192 116.5412098348624" height="116.5412098348624" width="192"><g><svg viewBox="0 0 192 116.5412098348624" height="116.5412098348624" width="192"><g id="textblocktransform"><svg viewBox="0 0 192 116.5412098348624" height="116.5412098348624" width="192" id="textblock"><g><svg viewBox="0 0 192 59.88990825688074" height="59.88990825688074" width="192"><g transform="matrix(1,0,0,1,0,0)"><svg width="192" viewBox="2.5 -33.75 108.99 34" height="59.88990825688074" data-palette-color="#ee3e38"><path d="M10.75-31.7Q17.55-31.7 21.53-29.83 25.5-27.95 27.55-25.65L27.55-25.65Q29.2-23.75 30.25-21.28 31.3-18.8 31.3-15.35L31.3-15.35Q31.3-12.8 30.15-10.03 29-7.25 27.15-5.55L27.15-5.55Q25.2-3.7 23.48-2.55 21.75-1.4 18.82-0.68 15.9 0.05 11.4 0.05L11.4 0.05Q8 0.05 5.25-0.73 2.5-1.5 2.5-3.35L2.5-3.35Q2.5-4.1 3.18-4.53 3.85-4.95 4.65-4.95L4.65-4.95Q5.1-4.95 5.25-4.9L5.25-4.9Q5.6-8.2 5.6-11.9L5.6-11.9Q5.6-16.05 5.4-18.78 5.2-21.5 4.85-24.2L4.85-24.2Q4.8-24.55 4.63-26.15 4.45-27.75 4.45-29.4L4.45-29.4Q4.45-30.45 5.5-31.18 6.55-31.9 7.65-31.9L7.65-31.9Q8.3-31.9 9.4-31.8L9.4-31.8Q10.3-31.7 10.75-31.7L10.75-31.7ZM10.1-4.65Q11.3-4.45 13.25-4.45L13.25-4.45Q16.55-4.45 19.5-5.83 22.45-7.2 24.25-9.68 26.05-12.15 26.05-15.4L26.05-15.4Q26.05-18.8 24.85-21.2 23.65-23.6 21.15-25.15L21.15-25.15Q19.3-26.3 16.6-26.83 13.9-27.35 10.1-27.35L10.1-27.35Q10.1-26.15 10.25-24.35L10.25-24.35Q10.25-23.75 10.35-22.25L10.35-22.25Q10.65-16.45 10.65-12.9L10.65-12.9Q10.65-7.75 10.1-4.65L10.1-4.65ZM58.5-2.4Q58.5-1.3 57.32-0.55 56.15 0.2 55.15 0.2L55.15 0.2Q53.25 0.2 52.12-0.28 51-0.75 50.05-2.05L50.05-2.05Q48.75-0.9 46.5-0.33 44.25 0.25 42.35 0.25L42.35 0.25Q39.25 0.25 37.25-1.43 35.25-3.1 35.25-6.35L35.25-6.35Q35.25-7.75 36-8.93 36.75-10.1 38.05-11L38.05-11Q39.5-11.95 41.35-12.48 43.2-13 45.2-13L45.2-13Q46.25-13 47.7-12.6 49.15-12.2 49.95-11.75L49.95-11.75 49.95-12.55Q49.95-15.25 48.65-16.28 47.35-17.3 44.45-17.3L44.45-17.3Q43.6-17.3 42.77-16.95 41.95-16.6 40.9-16L40.9-16Q39.5-15.25 38.25-15.25L38.25-15.25Q37.8-15.25 37.4-15.88 37-16.5 37-17L37-17Q37-18.45 38.37-19.5 39.75-20.55 41.65-21.08 43.55-21.6 45.05-21.6L45.05-21.6Q46.55-21.6 48.5-21.03 50.45-20.45 51.7-19.45L51.7-19.45Q53.2-18.15 54.02-16.43 54.85-14.7 54.85-12.65L54.85-12.65Q54.85-12 54.75-10.7L54.75-10.7Q54.65-9.3 54.65-8.3L54.65-8.3Q54.65-7.85 54.55-6.95L54.55-6.95Q54.45-5.85 54.45-5.2L54.45-5.2Q54.45-4.6 54.9-4.17 55.35-3.75 55.95-3.75L55.95-3.75 57.35-3.8Q57.9-3.8 58.2-3.4 58.5-3 58.5-2.4L58.5-2.4ZM42.4-3.7Q44.55-3.7 46-4.15 47.45-4.6 49.5-5.8L49.5-5.8Q49.7-6.65 49.75-8.05L49.75-8.05Q47-9.35 45.2-9.35L45.2-9.35Q43.15-9.35 41.55-8.6 39.95-7.85 39.95-5.95L39.95-5.95Q39.95-5 40.75-4.35 41.55-3.7 42.4-3.7L42.4-3.7ZM67.4-7.75Q67.4-5.85 67.97-4.83 68.55-3.8 69.45-3.8L69.45-3.8Q69.95-3.8 70.4-3.88 70.85-3.95 71.3-3.95L71.3-3.95Q71.8-3.95 72.17-3.45 72.55-2.95 72.55-2.35L72.55-2.35Q72.55-1.15 71.42-0.48 70.3 0.2 68.4 0.2L68.4 0.2Q67.05 0.2 65.67-0.63 64.3-1.45 63.4-3.23 62.5-5 62.5-7.65L62.5-7.65Q62.5-13.35 62.7-17.3L62.7-17.3Q62.95-22 62.95-29.15L62.95-29.15Q62.95-31.4 63.2-32.3L63.2-32.3Q63.5-33 64.17-33.38 64.85-33.75 65.6-33.75L65.6-33.75Q66.35-33.75 66.92-33.5 67.5-33.25 67.7-32.7L67.7-32.7Q67.9-32.1 67.97-31.53 68.05-30.95 68.05-29.9L68.05-29.9Q68.05-27.85 67.9-25.95L67.9-25.95Q67.8-23.65 67.8-22.6L67.8-22.6Q67.4-13.8 67.4-7.75L67.4-7.75ZM78.49-32.1Q80.24-31.95 81.54-31.18 82.84-30.4 82.84-28.85L82.84-28.85Q82.84-27.7 81.77-27.03 80.69-26.35 79.19-26.35L79.19-26.35Q77.74-26.35 77.19-27.1 76.64-27.85 76.64-28.65L76.64-28.65Q76.64-30.15 76.97-31.15 77.29-32.15 78.49-32.1L78.49-32.1ZM82.49-18.95L82.49-9.95 82.49-8.5Q82.49-6.55 82.62-4.83 82.74-3.1 82.94-1.35L82.94-1.35Q82.89-0.85 82.19-0.33 81.49 0.2 80.94 0.2L80.94 0.2Q79.99 0.2 79.02-0.18 78.04-0.55 77.84-1.1L77.84-1.1Q77.54-2.7 77.54-3.95L77.54-3.95Q77.54-8.05 77.29-13.15L77.29-13.15Q77.09-17.65 77.09-19.45L77.09-19.45Q77.09-20.35 77.99-21 78.89-21.65 79.89-21.65L79.89-21.65Q81.34-21.65 81.92-21 82.49-20.35 82.49-18.95L82.49-18.95ZM111.49-2.4Q111.49-1.3 110.32-0.55 109.14 0.2 108.14 0.2L108.14 0.2Q106.24 0.2 105.12-0.28 103.99-0.75 103.04-2.05L103.04-2.05Q101.74-0.9 99.49-0.33 97.24 0.25 95.34 0.25L95.34 0.25Q92.24 0.25 90.24-1.43 88.24-3.1 88.24-6.35L88.24-6.35Q88.24-7.75 88.99-8.93 89.74-10.1 91.04-11L91.04-11Q92.49-11.95 94.34-12.48 96.19-13 98.19-13L98.19-13Q99.24-13 100.69-12.6 102.14-12.2 102.94-11.75L102.94-11.75 102.94-12.55Q102.94-15.25 101.64-16.28 100.34-17.3 97.44-17.3L97.44-17.3Q96.59-17.3 95.77-16.95 94.94-16.6 93.89-16L93.89-16Q92.49-15.25 91.24-15.25L91.24-15.25Q90.79-15.25 90.39-15.88 89.99-16.5 89.99-17L89.99-17Q89.99-18.45 91.37-19.5 92.74-20.55 94.64-21.08 96.54-21.6 98.04-21.6L98.04-21.6Q99.54-21.6 101.49-21.03 103.44-20.45 104.69-19.45L104.69-19.45Q106.19-18.15 107.02-16.43 107.84-14.7 107.84-12.65L107.84-12.65Q107.84-12 107.74-10.7L107.74-10.7Q107.64-9.3 107.64-8.3L107.64-8.3Q107.64-7.85 107.54-6.95L107.54-6.95Q107.44-5.85 107.44-5.2L107.44-5.2Q107.44-4.6 107.89-4.17 108.34-3.75 108.94-3.75L108.94-3.75 110.34-3.8Q110.89-3.8 111.19-3.4 111.49-3 111.49-2.4L111.49-2.4ZM95.39-3.7Q97.54-3.7 98.99-4.15 100.44-4.6 102.49-5.8L102.49-5.8Q102.69-6.65 102.74-8.05L102.74-8.05Q99.99-9.35 98.19-9.35L98.19-9.35Q96.14-9.35 94.54-8.6 92.94-7.85 92.94-5.95L92.94-5.95Q92.94-5 93.74-4.35 94.54-3.7 95.39-3.7L95.39-3.7Z" opacity="1" transform="matrix(1,0,0,1,0,0)" fill="#ee3e38" class="wordmark-text-0" data-fill-palette-color="primary" id="text-0"></path></svg></g></svg></g><g transform="matrix(1,0,0,1,52.43357371452955,68.6292832293578)"><svg viewBox="0 0 87.1328525709409 47.91192660550459" height="47.91192660550459" width="87.1328525709409"><g transform="matrix(1,0,0,1,0,0)"><svg width="87.1328525709409" viewBox="3.05 -31.75 78.2 43" height="47.91192660550459" data-palette-color="url(#8e5df381-4a6b-4e21-ac20-0c0bfb6a4cac)"></svg></g></svg></g></svg></g></svg></g><g></g></svg></g></svg></g></svg></g></svg></g><defs></defs><mask id="1ac3210c-3e50-41cd-a6f9-a933b526a6ae"><g id="SvgjsG1179"><svg viewBox="0 0 320 360" height="360" width="320"><g><svg></svg></g><g><svg viewBox="0 0 320 360" height="360" width="320"><g></g><g transform="matrix(1,0,0,1,64,121.7293950825688)"><svg viewBox="0 0 192 116.5412098348624" height="116.5412098348624" width="192"><g><svg viewBox="0 0 192 116.5412098348624" height="116.5412098348624" width="192"><g><svg viewBox="0 0 192 116.5412098348624" height="116.5412098348624" width="192"><g><svg viewBox="0 0 192 116.5412098348624" height="116.5412098348624" width="192"><g id="SvgjsG1178"><svg viewBox="0 0 192 116.5412098348624" height="116.5412098348624" width="192" id="SvgjsSvg1177"><g><svg viewBox="0 0 192 59.88990825688074" height="59.88990825688074" width="192"><g transform="matrix(1,0,0,1,0,0)"><svg width="192" viewBox="2.5 -33.75 108.99 34" height="59.88990825688074" data-palette-color="#ee3e38"></svg></g></svg></g><g transform="matrix(1,0,0,1,52.43357371452955,68.6292832293578)"><svg viewBox="0 0 87.1328525709409 47.91192660550459" height="47.91192660550459" width="87.1328525709409"><g transform="matrix(1,0,0,1,0,0)"><svg width="87.1328525709409" viewBox="3.05 -31.75 78.2 43" height="47.91192660550459" data-palette-color="url(#8e5df381-4a6b-4e21-ac20-0c0bfb6a4cac)"><path d="M24.1-6.8Q25.05-6.8 25.53-6.08 26-5.35 26-4.5L26-4.5Q26-3.45 25.68-3.03 25.35-2.6 24.45-2.15L24.45-2.15Q22.35-1.15 19.25-0.55 16.15 0.05 12.6 0.05L12.6 0.05Q8.15 0.05 6.08-1.45 4-2.95 3.53-5.08 3.05-7.2 3.05-10.65L3.05-10.65Q3.05-14.35 3.35-17.93 3.65-21.5 4.4-27.05L4.4-27.05Q4.75-29.45 6.3-30.53 7.85-31.6 9.7-31.6L9.7-31.6Q11.25-31.6 14.75-31.7L14.75-31.7 19.1-31.75Q21.8-31.75 23-31.6L23-31.6Q24.5-31.3 25.23-30.93 25.95-30.55 25.95-29.65L25.95-29.65Q25.95-28.65 25.28-27.7 24.6-26.75 23.25-26.75L23.25-26.75Q21.7-26.75 18.8-26.95L18.8-26.95Q15.9-27.15 14.45-27.15L14.45-27.15Q13.2-27.15 12-27L12-27Q10.6-26.9 10-26.65 9.4-26.4 9.3-25.8L9.3-25.8Q8.6-20.65 8.6-18.2L8.6-18.2Q9.75-18.05 10.85-18.05L10.85-18.05Q12.25-18.05 13.85-18.2 15.45-18.35 15.9-18.4L15.9-18.4Q18.55-18.65 20.45-18.65L20.45-18.65Q21.55-18.65 22.13-18.25 22.7-17.85 22.7-17.15L22.7-17.15Q22.7-16.05 22.13-15.45 21.55-14.85 20.1-14.55L20.1-14.55Q18.35-14.2 15.78-14 13.2-13.8 10.75-13.8L10.75-13.8Q9.9-13.8 8.4-13.9L8.4-13.9Q8.25-10.85 8.25-8.25L8.25-8.25Q8.25-4.7 12.95-4.7L12.95-4.7Q15.45-4.7 17.1-5.05 18.75-5.4 20.9-6.05L20.9-6.05Q22.9-6.8 24.1-6.8L24.1-6.8ZM53.05-3.85Q53.3-3.75 53.85-3.6 54.4-3.45 54.65-3.3 54.9-3.15 54.9-2.85L54.9-2.85Q54.95-1.65 54.02-0.88 53.1-0.1 51.85-0.1L51.85-0.1Q49.9-0.1 48.8-1.15 47.7-2.2 47.2-4.35L47.2-4.35Q47-5.2 47-6.7L47-6.7Q47-7.55 47.1-9.45L47.1-9.45Q47.2-11.45 47.2-12.65L47.2-12.65Q47.2-14.4 46.22-15.73 45.25-17.05 43.5-17.05L43.5-17.05Q42.45-17.05 41.3-16.43 40.15-15.8 39.7-14.9L39.7-14.9Q38.95-13.45 38.65-11.75L38.65-11.75Q38.1-8.75 38.1-5.5L38.1-5.5Q38.1-3.95 38.15-3.1L38.15-3.1Q38.15-2.9 38.17-2.33 38.2-1.75 38.07-1.28 37.95-0.8 37.65-0.4L37.65-0.4Q37.4-0.15 36.87 0.03 36.35 0.2 35.9 0.2L35.9 0.2Q35.2 0.2 34.15-0.4 33.1-1 32.95-1.75L32.95-1.75 32.9-2.6Q32.9-3.05 33-3.65L33-3.65Q33.6-7.15 33.6-9.75L33.6-9.75Q33.6-10.9 33.55-11.55L33.55-11.55 33.5-13.9Q33.5-15.1 32.9-16.23 32.3-17.35 31.5-17.35L31.5-17.35Q31.25-17.35 30.8-17.18 30.35-17 30.05-17L30.05-17Q29.55-17 28.97-17.5 28.4-18 28.4-18.55L28.4-18.55Q28.4-19.6 29.1-20.25L29.1-20.25Q29.85-20.85 30.57-21.2 31.3-21.55 32.25-21.55L32.25-21.55Q33.05-21.55 33.55-21.4 34.05-21.25 34.9-20.75L34.9-20.75Q35.35-20.5 35.95-19.65 36.55-18.8 36.95-17.25L36.95-17.25Q38.25-19.65 40.17-20.63 42.1-21.6 45.1-21.6L45.1-21.6Q46.25-21.6 47.57-20.85 48.9-20.1 49.85-19.1L49.85-19.1Q50.75-18 51.35-16.38 51.95-14.75 51.95-13.45L51.95-13.45Q51.95-12.7 51.85-11L51.85-11Q51.7-9.65 51.7-8.15L51.7-8.15Q51.7-4.65 53.05-3.85L53.05-3.85ZM76.55-0.1Q77.89 0.85 78.37 2 78.84 3.15 78.84 5.2L78.84 5.2Q78.84 6.2 78.27 7.2 77.69 8.2 77.09 8.65L77.09 8.65Q72.34 11.25 67.59 11.25L67.59 11.25Q65.25 11.25 63.55 10.65 61.84 10.05 60.34 9.05L60.34 9.05Q59.34 8.3 58.72 6.98 58.09 5.65 58.09 4.35L58.09 4.35Q58.09 2.55 59.22 1.2 60.34-0.15 62.24-0.75L62.24-0.75Q61.89-1.5 61.89-2.5L61.89-2.5Q61.89-3.45 63.3-5.35L63.3-5.35Q60.89-6.15 59.52-8.2 58.14-10.25 58.14-13L58.14-13Q58.14-14.7 58.95-16.03 59.74-17.35 61.34-19.1L61.34-19.1Q62.45-20.3 64.14-20.85 65.84-21.4 68.39-21.4L68.39-21.4Q70.19-21.4 72.84-20.6L72.84-20.6Q76-22.8 78.39-22.8L78.39-22.8Q79-22.8 79.77-22.5 80.55-22.2 80.94-21.9L80.94-21.9Q81.25-21.35 81.25-20.05L81.25-20.05Q81.25-19.55 80.82-19.07 80.39-18.6 79.75-18.6L79.75-18.6 78.55-18.65Q77.64-18.75 77.14-18.75L77.14-18.75Q76.59-18.75 75.5-18.65L75.5-18.65Q76.55-17.4 77.12-16 77.69-14.6 77.69-12.35L77.69-12.35Q77.69-10.65 76.44-8.8 75.19-6.95 73.5-5.9L73.5-5.9Q70.89-4.5 67.44-4.45L67.44-4.45Q67.05-4.05 66.77-3.73 66.5-3.4 66.5-3.2L66.5-3.2Q66.5-2.65 67.44-2.35 68.39-2.05 70.34-1.9L70.34-1.9Q71.84-1.8 73.67-1.28 75.5-0.75 76.55-0.1L76.55-0.1ZM67.75-8.55Q70.05-8.55 71.44-9.8 72.84-11.05 72.84-13.35L72.84-13.35Q72.84-15.1 71.59-16.2 70.34-17.3 68.39-17.3L68.39-17.3Q67.14-17.3 65.72-16.88 64.3-16.45 63.7-15.55L63.7-15.55Q63.39-15.15 63.09-14.03 62.8-12.9 62.8-12.3L62.8-12.3Q62.8-11.45 63.52-10.58 64.25-9.7 65.42-9.13 66.59-8.55 67.75-8.55L67.75-8.55ZM70.89 2.3Q68.14 2.05 67.02 1.83 65.89 1.6 65.19 1.3L65.19 1.3Q62.64 2.65 62.64 4.25L62.64 4.25Q62.64 5.75 64.19 6.53 65.75 7.3 67.75 7.3L67.75 7.3Q68.64 7.3 70.19 7.1 71.75 6.9 72.8 6.4L72.8 6.4Q73.5 6.05 73.84 5.73 74.19 5.4 74.19 4.55L74.19 4.55Q74.19 3.5 73.09 2.95 72 2.4 70.89 2.3L70.89 2.3Z" opacity="1" transform="matrix(1,0,0,1,0,0)" fill="white" class="slogan-text-1" id="SvgjsPath1175"></path></svg></g></svg></g></svg></g></svg></g><g></g></svg></g></svg></g></svg></g></svg></g><defs><mask></mask></defs></svg></g></mask><linearGradient x1="0.054" x2="0.941" y1="0.5" y2="0.5" id="8e5df381-4a6b-4e21-ac20-0c0bfb6a4cac"><stop stop-color="#864d25" offset="0"></stop><stop stop-color="#f1c4b3" offset="0.498"></stop><stop stop-color="#864d25" offset="1"></stop></linearGradient><rect width="320.00000000000006" height="360" fill="url(#8e5df381-4a6b-4e21-ac20-0c0bfb6a4cac)" mask="url(#1ac3210c-3e50-41cd-a6f9-a933b526a6ae)" data-fill-palette-color="secondary"></rect></svg><rect width="320" height="360" fill="none" stroke="none" visibility="hidden"></rect></g></svg></g></svg>