<svg xmlns="http://www.w3.org/2000/svg" version="1.1" xmlns:xlink="http://www.w3.org/1999/xlink" xmlns:svgjs="http://svgjs.dev/svgjs" width="1000" height="1125" viewBox="0 0 1000 1125"><g transform="matrix(1,0,0,1,1.7053025658242404e-13,0)"><svg viewBox="0 0 320 360" data-background-color="#ffffff" preserveAspectRatio="xMidYMid meet" height="1125" width="1000" xmlns="http://www.w3.org/2000/svg" xmlns:xlink="http://www.w3.org/1999/xlink"><g id="tight-bounds" transform="matrix(1,0,0,1,0,0)"><svg viewBox="0 0 320 360" height="360" width="320"><g><svg></svg></g><g><svg viewBox="0 0 320 360" height="360" width="320"><g><path xmlns="http://www.w3.org/2000/svg" d="M20.961 227.22l3.726 4.658-1.863-6.056c-0.466-2.795-3.726 0.466-1.863 1.398M25.153 224.425c1.397 2.329 2.795 4.658 2.795 6.987 0 3.261 2.795 4.658 5.123 5.589-3.261-3.726-5.124-13.974-7.918-12.576M204.017 26.929c7.918 0 15.371-0.932 23.756 0.931 20.495 5.124 37.729 15.371 49.374 29.811l32.606 52.169c1.397 13.042 4.192 27.482 3.726 43.319 3.261 0 2.795-4.658 6.521-5.59-3.726 9.316-5.59 20.961-6.521 34.469-2.329-7.453 0-18.632 0.466-24.687-3.261 5.124-5.124 1.397-5.124-0.932 0.466-3.726-1.397-3.261-2.795-4.658-5.124-4.658-8.384-9.782-12.11-17.7 2.329-6.055 2.795-14.905-4.658-19.563-2.329-1.397-5.124-3.726-6.521-7.453-1.863-5.124-5.124-11.179-4.193-19.097 0.466-2.329-6.987 5.124-11.179 1.863-18.166-12.576-36.332-27.016-58.224-39.127-11.645 0-20.029-4.192-24.221-9.316-3.726-4.658-0.932-10.713 4.658-11.179 3.261 0 6.987-0.932 9.782 0.932 0.466-1.863 2.329-4.192 4.657-4.192M157.904 16.215l0.932 0.466c4.658 0.932 6.987 7.453 12.11 5.124 0 3.261 0.466 6.521-0.466 8.85-1.397 3.726-5.59 3.726-8.85 3.726-31.208-1.863-49.374 11.179-68.471 22.358-5.124 3.261-10.713 5.59-14.906 9.782-20.029 18.632-41.921 35.866-47.045 70.335l-4.192 38.195c-0.466 4.192-5.124 8.384-4.192 13.508l3.26 22.824c-3.261-3.261-5.124 0.932-4.192 2.795 0.466 1.397 2.329 6.055 5.124 1.863 3.726 6.987 7.453 20.495 12.576 26.55 15.837 18.632 36.332 35.4 53.101 52.169 4.192-0.932 7.453-0.932 8.384-3.727 1.397 2.795-1.397 5.59-3.726 6.056 7.453 4.658 15.837 8.85 27.016 9.781 14.44 0.932 27.948 3.261 40.524 6.522 6.521-1.863 13.042-2.795 20.029-3.261 2.329 0 3.726-3.726 6.521-4.658l0.466-4.658c2.795 4.192 2.329-1.397 0.466-4.192 3.261 2.795 4.192 5.124 5.589 6.987 0-1.397 3.726-6.521 3.727-0.466l0.931-6.055c1.397-0.932 1.863 5.124 3.261 0.931 1.397-4.192 4.192-0.932 6.987-2.329-0.932 1.863-0.466 5.59 2.794 3.261l3.727-3.261c2.329 5.59 6.055 3.261 7.918 2.329 20.495-13.042 40.99-28.413 60.553-43.784l-0.466 6.055 2.329-7.453c2.329 2.329 4.192 0.466 5.124-0.931 2.795-4.658 6.521-9.316 12.577-13.508-7.453 20.029-16.303 35.866-27.482 48.908l-4.658 5.59c0 3.261-0.932 7.453-4.658 7.918-1.863 0.466-5.59-0.932-8.384 1.863-1.397 1.863 3.261 5.59-0.466 2.795-3.261-2.329-6.521 0-10.248 0.932-2.795 0.932 1.863 3.726 2.795 5.589 0.932 1.863 1.863 3.726 1.398 6.056l-5.124-5.59c-6.055 3.261-9.782 9.316-14.906 13.974-2.329 1.863-1.397 5.124-1.397 7.918-3.261 0-6.987-0.932-8.85 0.932-1.397 1.863-0.932 4.658-0.932 7.453-4.658-0.466-5.124-7.453-9.315-6.056-4.192 0.932-8.85 1.397-12.577 3.727 2.795 5.59-4.658 2.329-3.726 3.26-6.987-4.192-13.042-7.453-20.495-4.658-15.837-5.124-35.4-2.795-49.84-0.931 0-2.329 0.466-4.658-0.466-5.124-0.932 2.329-3.726 1.397-3.26 1.397-8.85-6.055-17.7-9.782-27.016-14.905-8.384 0.932-16.303-3.261-18.632-5.59-6.521-6.055-13.974-2.795-20.029-4.192-13.042-3.261-17.7-16.769-19.098-26.084-0.932-4.658-4.658-6.521-6.055-6.056-6.055-19.563-15.371-37.263-22.824-55.429-1.863-4.658-1.397-9.316-1.397-14.44 2.329 0.932 4.658 0.466 4.192-2.794-2.329-15.371-7.918-27.016-13.974-38.195 3.261-15.837 3.726-34.469 11.179-48.443 6.521-12.576 18.632-19.098 27.016-29.811 2.795-3.726 2.795-8.85 5.59-12.11 9.316-9.316 18.632-19.098 28.879-27.482 4.658-3.726 10.247 0 17.234-1.397 2.329-8.384 11.645-15.837 20.495-13.508 3.726 0.932 11.179-8.85 13.508-9.782 3.726-1.397 1.863 3.726 1.863 6.987 8.85-6.987 20.961-10.713 32.14-14.906" fill="#ee3e38" fill-rule="nonzero" stroke="none" stroke-width="1" stroke-linecap="butt" stroke-linejoin="miter" stroke-miterlimit="10" stroke-dasharray="" stroke-dashoffset="0" font-family="none" font-weight="none" font-size="none" text-anchor="none" style="mix-blend-mode: normal" data-fill-palette-color="tertiary"></path></g><g transform="matrix(1,0,0,1,80.42018312223865,90)"><svg viewBox="0 0 159.1596337555227 180" height="180" width="159.1596337555227"><g><svg viewBox="0 0 159.1596337555227 180" height="180" width="159.1596337555227"><g><svg viewBox="0 0 192 217.14048458471524" height="180" width="159.1596337555227"><g transform="matrix(1,0,0,1,0,111.49923805260514)"><svg viewBox="0 0 192 105.6412465321101" height="105.6412465321101" width="192"><g id="textblocktransform"><svg viewBox="0 0 192 105.6412465321101" height="105.6412465321101" width="192" id="textblock"><g><svg viewBox="0 0 192 59.88990825688074" height="59.88990825688074" width="192"><g transform="matrix(1,0,0,1,0,0)"><svg width="192" viewBox="2.5 -33.75 108.98999786376953 34" height="59.88990825688074" data-palette-color="#ee3e38"><path d="M10.75-31.7Q17.55-31.7 21.53-29.83 25.5-27.95 27.55-25.65L27.55-25.65Q29.2-23.75 30.25-21.28 31.3-18.8 31.3-15.35L31.3-15.35Q31.3-12.8 30.15-10.03 29-7.25 27.15-5.55L27.15-5.55Q25.2-3.7 23.48-2.55 21.75-1.4 18.82-0.68 15.9 0.05 11.4 0.05L11.4 0.05Q8 0.05 5.25-0.73 2.5-1.5 2.5-3.35L2.5-3.35Q2.5-4.1 3.18-4.53 3.85-4.95 4.65-4.95L4.65-4.95Q5.1-4.95 5.25-4.9L5.25-4.9Q5.6-8.2 5.6-11.9L5.6-11.9Q5.6-16.05 5.4-18.78 5.2-21.5 4.85-24.2L4.85-24.2Q4.8-24.55 4.63-26.15 4.45-27.75 4.45-29.4L4.45-29.4Q4.45-30.45 5.5-31.18 6.55-31.9 7.65-31.9L7.65-31.9Q8.3-31.9 9.4-31.8L9.4-31.8Q10.3-31.7 10.75-31.7L10.75-31.7ZM10.1-4.65Q11.3-4.45 13.25-4.45L13.25-4.45Q16.55-4.45 19.5-5.83 22.45-7.2 24.25-9.68 26.05-12.15 26.05-15.4L26.05-15.4Q26.05-18.8 24.85-21.2 23.65-23.6 21.15-25.15L21.15-25.15Q19.3-26.3 16.6-26.83 13.9-27.35 10.1-27.35L10.1-27.35Q10.1-26.15 10.25-24.35L10.25-24.35Q10.25-23.75 10.35-22.25L10.35-22.25Q10.65-16.45 10.65-12.9L10.65-12.9Q10.65-7.75 10.1-4.65L10.1-4.65ZM58.5-2.4Q58.5-1.3 57.32-0.55 56.15 0.2 55.15 0.2L55.15 0.2Q53.25 0.2 52.12-0.28 51-0.75 50.05-2.05L50.05-2.05Q48.75-0.9 46.5-0.33 44.25 0.25 42.35 0.25L42.35 0.25Q39.25 0.25 37.25-1.43 35.25-3.1 35.25-6.35L35.25-6.35Q35.25-7.75 36-8.93 36.75-10.1 38.05-11L38.05-11Q39.5-11.95 41.35-12.48 43.2-13 45.2-13L45.2-13Q46.25-13 47.7-12.6 49.15-12.2 49.95-11.75L49.95-11.75 49.95-12.55Q49.95-15.25 48.65-16.28 47.35-17.3 44.45-17.3L44.45-17.3Q43.6-17.3 42.77-16.95 41.95-16.6 40.9-16L40.9-16Q39.5-15.25 38.25-15.25L38.25-15.25Q37.8-15.25 37.4-15.88 37-16.5 37-17L37-17Q37-18.45 38.37-19.5 39.75-20.55 41.65-21.08 43.55-21.6 45.05-21.6L45.05-21.6Q46.55-21.6 48.5-21.03 50.45-20.45 51.7-19.45L51.7-19.45Q53.2-18.15 54.02-16.43 54.85-14.7 54.85-12.65L54.85-12.65Q54.85-12 54.75-10.7L54.75-10.7Q54.65-9.3 54.65-8.3L54.65-8.3Q54.65-7.85 54.55-6.95L54.55-6.95Q54.45-5.85 54.45-5.2L54.45-5.2Q54.45-4.6 54.9-4.17 55.35-3.75 55.95-3.75L55.95-3.75 57.35-3.8Q57.9-3.8 58.2-3.4 58.5-3 58.5-2.4L58.5-2.4ZM42.4-3.7Q44.55-3.7 46-4.15 47.45-4.6 49.5-5.8L49.5-5.8Q49.7-6.65 49.75-8.05L49.75-8.05Q47-9.35 45.2-9.35L45.2-9.35Q43.15-9.35 41.55-8.6 39.95-7.85 39.95-5.95L39.95-5.95Q39.95-5 40.75-4.35 41.55-3.7 42.4-3.7L42.4-3.7ZM67.4-7.75Q67.4-5.85 67.97-4.83 68.55-3.8 69.45-3.8L69.45-3.8Q69.95-3.8 70.4-3.88 70.85-3.95 71.3-3.95L71.3-3.95Q71.8-3.95 72.17-3.45 72.55-2.95 72.55-2.35L72.55-2.35Q72.55-1.15 71.42-0.48 70.3 0.2 68.4 0.2L68.4 0.2Q67.05 0.2 65.67-0.63 64.3-1.45 63.4-3.23 62.5-5 62.5-7.65L62.5-7.65Q62.5-13.35 62.7-17.3L62.7-17.3Q62.95-22 62.95-29.15L62.95-29.15Q62.95-31.4 63.2-32.3L63.2-32.3Q63.5-33 64.17-33.38 64.85-33.75 65.6-33.75L65.6-33.75Q66.35-33.75 66.92-33.5 67.5-33.25 67.7-32.7L67.7-32.7Q67.9-32.1 67.97-31.53 68.05-30.95 68.05-29.9L68.05-29.9Q68.05-27.85 67.9-25.95L67.9-25.95Q67.8-23.65 67.8-22.6L67.8-22.6Q67.4-13.8 67.4-7.75L67.4-7.75ZM78.49-32.1Q80.24-31.95 81.54-31.18 82.84-30.4 82.84-28.85L82.84-28.85Q82.84-27.7 81.77-27.03 80.69-26.35 79.19-26.35L79.19-26.35Q77.74-26.35 77.19-27.1 76.64-27.85 76.64-28.65L76.64-28.65Q76.64-30.15 76.97-31.15 77.29-32.15 78.49-32.1L78.49-32.1ZM82.49-18.95L82.49-9.95 82.49-8.5Q82.49-6.55 82.62-4.83 82.74-3.1 82.94-1.35L82.94-1.35Q82.89-0.85 82.19-0.33 81.49 0.2 80.94 0.2L80.94 0.2Q79.99 0.2 79.02-0.18 78.04-0.55 77.84-1.1L77.84-1.1Q77.54-2.7 77.54-3.95L77.54-3.95Q77.54-8.05 77.29-13.15L77.29-13.15Q77.09-17.65 77.09-19.45L77.09-19.45Q77.09-20.35 77.99-21 78.89-21.65 79.89-21.65L79.89-21.65Q81.34-21.65 81.92-21 82.49-20.35 82.49-18.95L82.49-18.95ZM111.49-2.4Q111.49-1.3 110.32-0.55 109.14 0.2 108.14 0.2L108.14 0.2Q106.24 0.2 105.12-0.28 103.99-0.75 103.04-2.05L103.04-2.05Q101.74-0.9 99.49-0.33 97.24 0.25 95.34 0.25L95.34 0.25Q92.24 0.25 90.24-1.43 88.24-3.1 88.24-6.35L88.24-6.35Q88.24-7.75 88.99-8.93 89.74-10.1 91.04-11L91.04-11Q92.49-11.95 94.34-12.48 96.19-13 98.19-13L98.19-13Q99.24-13 100.69-12.6 102.14-12.2 102.94-11.75L102.94-11.75 102.94-12.55Q102.94-15.25 101.64-16.28 100.34-17.3 97.44-17.3L97.44-17.3Q96.59-17.3 95.77-16.95 94.94-16.6 93.89-16L93.89-16Q92.49-15.25 91.24-15.25L91.24-15.25Q90.79-15.25 90.39-15.88 89.99-16.5 89.99-17L89.99-17Q89.99-18.45 91.37-19.5 92.74-20.55 94.64-21.08 96.54-21.6 98.04-21.6L98.04-21.6Q99.54-21.6 101.49-21.03 103.44-20.45 104.69-19.45L104.69-19.45Q106.19-18.15 107.02-16.43 107.84-14.7 107.84-12.65L107.84-12.65Q107.84-12 107.74-10.7L107.74-10.7Q107.64-9.3 107.64-8.3L107.64-8.3Q107.64-7.85 107.54-6.95L107.54-6.95Q107.44-5.85 107.44-5.2L107.44-5.2Q107.44-4.6 107.89-4.17 108.34-3.75 108.94-3.75L108.94-3.75 110.34-3.8Q110.89-3.8 111.19-3.4 111.49-3 111.49-2.4L111.49-2.4ZM95.39-3.7Q97.54-3.7 98.99-4.15 100.44-4.6 102.49-5.8L102.49-5.8Q102.69-6.65 102.74-8.05L102.74-8.05Q99.99-9.35 98.19-9.35L98.19-9.35Q96.14-9.35 94.54-8.6 92.94-7.85 92.94-5.95L92.94-5.95Q92.94-5 93.74-4.35 94.54-3.7 95.39-3.7L95.39-3.7Z" opacity="1" transform="matrix(1,0,0,1,0,0)" fill="#ee3e38" class="wordmark-text-0" data-fill-palette-color="primary" id="text-0"></path></svg></g></svg></g><g transform="matrix(1,0,0,1,0,68.6292832293578)"><svg viewBox="0 0 192 37.01196330275229" height="37.01196330275229" width="192"><g transform="matrix(1,0,0,1,0,0)"><svg width="192" viewBox="3.049999952316284 -31.75 223.05999755859375 43" height="37.01196330275229" data-palette-color="url(#ae81dc0f-8207-49e9-a8b0-009866f1bf4c)"></svg></g></svg></g></svg></g></svg></g><g transform="matrix(1,0,0,1,36.672,0)"><svg viewBox="0 0 118.656 102.75986308012807" height="102.75986308012807" width="118.656"><g><svg xmlns="http://www.w3.org/2000/svg" xmlns:xlink="http://www.w3.org/1999/xlink" version="1.1" x="0" y="0" viewBox="10.045999526977539 15.39900016784668 79.9070053100586 69.2020034790039" enable-background="new 0 0 100 100" xml:space="preserve" height="102.75986308012807" width="118.656" class="icon-icon-0" data-fill-palette-color="accent" id="icon-0"></svg></g></svg></g><g></g></svg></g></svg></g></svg></g></svg></g><defs></defs><mask id="c948c8f1-2ccd-49ab-bd4c-ea3964777593"><g id="SvgjsG1122"><svg viewBox="0 0 320 360" height="360" width="320"><g><svg></svg></g><g><svg viewBox="0 0 320 360" height="360" width="320"><g></g><g transform="matrix(1,0,0,1,80.42018312223865,90)"><svg viewBox="0 0 159.1596337555227 180" height="180" width="159.1596337555227"><g><svg viewBox="0 0 159.1596337555227 180" height="180" width="159.1596337555227"><g><svg viewBox="0 0 192 217.14048458471524" height="180" width="159.1596337555227"><g transform="matrix(1,0,0,1,0,111.49923805260514)"><svg viewBox="0 0 192 105.6412465321101" height="105.6412465321101" width="192"><g id="SvgjsG1121"><svg viewBox="0 0 192 105.6412465321101" height="105.6412465321101" width="192" id="SvgjsSvg1120"><g><svg viewBox="0 0 192 59.88990825688074" height="59.88990825688074" width="192"><g transform="matrix(1,0,0,1,0,0)"><svg width="192" viewBox="2.5 -33.75 108.98999786376953 34" height="59.88990825688074" data-palette-color="#ee3e38"></svg></g></svg></g><g transform="matrix(1,0,0,1,0,68.6292832293578)"><svg viewBox="0 0 192 37.01196330275229" height="37.01196330275229" width="192"><g transform="matrix(1,0,0,1,0,0)"><svg width="192" viewBox="3.049999952316284 -31.75 223.05999755859375 43" height="37.01196330275229" data-palette-color="url(#ae81dc0f-8207-49e9-a8b0-009866f1bf4c)"><path d="M24.1-6.8Q25.05-6.8 25.53-6.08 26-5.35 26-4.5L26-4.5Q26-3.45 25.68-3.03 25.35-2.6 24.45-2.15L24.45-2.15Q22.35-1.15 19.25-0.55 16.15 0.05 12.6 0.05L12.6 0.05Q8.15 0.05 6.08-1.45 4-2.95 3.53-5.08 3.05-7.2 3.05-10.65L3.05-10.65Q3.05-14.35 3.35-17.93 3.65-21.5 4.4-27.05L4.4-27.05Q4.75-29.45 6.3-30.53 7.85-31.6 9.7-31.6L9.7-31.6Q11.25-31.6 14.75-31.7L14.75-31.7 19.1-31.75Q21.8-31.75 23-31.6L23-31.6Q24.5-31.3 25.23-30.93 25.95-30.55 25.95-29.65L25.95-29.65Q25.95-28.65 25.28-27.7 24.6-26.75 23.25-26.75L23.25-26.75Q21.7-26.75 18.8-26.95L18.8-26.95Q15.9-27.15 14.45-27.15L14.45-27.15Q13.2-27.15 12-27L12-27Q10.6-26.9 10-26.65 9.4-26.4 9.3-25.8L9.3-25.8Q8.6-20.65 8.6-18.2L8.6-18.2Q9.75-18.05 10.85-18.05L10.85-18.05Q12.25-18.05 13.85-18.2 15.45-18.35 15.9-18.4L15.9-18.4Q18.55-18.65 20.45-18.65L20.45-18.65Q21.55-18.65 22.13-18.25 22.7-17.85 22.7-17.15L22.7-17.15Q22.7-16.05 22.13-15.45 21.55-14.85 20.1-14.55L20.1-14.55Q18.35-14.2 15.78-14 13.2-13.8 10.75-13.8L10.75-13.8Q9.9-13.8 8.4-13.9L8.4-13.9Q8.25-10.85 8.25-8.25L8.25-8.25Q8.25-4.7 12.95-4.7L12.95-4.7Q15.45-4.7 17.1-5.05 18.75-5.4 20.9-6.05L20.9-6.05Q22.9-6.8 24.1-6.8L24.1-6.8ZM125.48-3.85Q125.73-3.75 126.28-3.6 126.83-3.45 127.08-3.3 127.33-3.15 127.33-2.85L127.33-2.85Q127.38-1.65 126.46-0.88 125.53-0.1 124.28-0.1L124.28-0.1Q122.33-0.1 121.23-1.15 120.13-2.2 119.63-4.35L119.63-4.35Q119.43-5.2 119.43-6.7L119.43-6.7Q119.43-7.55 119.53-9.45L119.53-9.45Q119.63-11.45 119.63-12.65L119.63-12.65Q119.63-14.4 118.66-15.73 117.68-17.05 115.93-17.05L115.93-17.05Q114.88-17.05 113.73-16.43 112.58-15.8 112.13-14.9L112.13-14.9Q111.38-13.45 111.08-11.75L111.08-11.75Q110.53-8.75 110.53-5.5L110.53-5.5Q110.53-3.95 110.58-3.1L110.58-3.1Q110.58-2.9 110.61-2.33 110.63-1.75 110.51-1.28 110.38-0.8 110.08-0.4L110.08-0.4Q109.83-0.15 109.31 0.03 108.78 0.2 108.33 0.2L108.33 0.2Q107.63 0.2 106.58-0.4 105.53-1 105.38-1.75L105.38-1.75 105.33-2.6Q105.33-3.05 105.43-3.65L105.43-3.65Q106.03-7.15 106.03-9.75L106.03-9.75Q106.03-10.9 105.98-11.55L105.98-11.55 105.93-13.9Q105.93-15.1 105.33-16.23 104.73-17.35 103.93-17.35L103.93-17.35Q103.68-17.35 103.23-17.18 102.78-17 102.48-17L102.48-17Q101.98-17 101.41-17.5 100.83-18 100.83-18.55L100.83-18.55Q100.83-19.6 101.53-20.25L101.53-20.25Q102.28-20.85 103.01-21.2 103.73-21.55 104.68-21.55L104.68-21.55Q105.48-21.55 105.98-21.4 106.48-21.25 107.33-20.75L107.33-20.75Q107.78-20.5 108.38-19.65 108.98-18.8 109.38-17.25L109.38-17.25Q110.68-19.65 112.61-20.63 114.53-21.6 117.53-21.6L117.53-21.6Q118.68-21.6 120.01-20.85 121.33-20.1 122.28-19.1L122.28-19.1Q123.18-18 123.78-16.38 124.38-14.75 124.38-13.45L124.38-13.45Q124.38-12.7 124.28-11L124.28-11Q124.13-9.65 124.13-8.15L124.13-8.15Q124.13-4.65 125.48-3.85L125.48-3.85ZM221.41-0.1Q222.76 0.85 223.24 2 223.71 3.15 223.71 5.2L223.71 5.2Q223.71 6.2 223.14 7.2 222.56 8.2 221.96 8.65L221.96 8.65Q217.21 11.25 212.46 11.25L212.46 11.25Q210.11 11.25 208.41 10.65 206.71 10.05 205.21 9.05L205.21 9.05Q204.21 8.3 203.59 6.98 202.96 5.65 202.96 4.35L202.96 4.35Q202.96 2.55 204.09 1.2 205.21-0.15 207.11-0.75L207.11-0.75Q206.76-1.5 206.76-2.5L206.76-2.5Q206.76-3.45 208.16-5.35L208.16-5.35Q205.76-6.15 204.39-8.2 203.01-10.25 203.01-13L203.01-13Q203.01-14.7 203.81-16.03 204.61-17.35 206.21-19.1L206.21-19.1Q207.31-20.3 209.01-20.85 210.71-21.4 213.26-21.4L213.26-21.4Q215.06-21.4 217.71-20.6L217.71-20.6Q220.86-22.8 223.26-22.8L223.26-22.8Q223.86-22.8 224.64-22.5 225.41-22.2 225.81-21.9L225.81-21.9Q226.11-21.35 226.11-20.05L226.11-20.05Q226.11-19.55 225.69-19.07 225.26-18.6 224.61-18.6L224.61-18.6 223.41-18.65Q222.51-18.75 222.01-18.75L222.01-18.75Q221.46-18.75 220.36-18.65L220.36-18.65Q221.41-17.4 221.99-16 222.56-14.6 222.56-12.35L222.56-12.35Q222.56-10.65 221.31-8.8 220.06-6.95 218.36-5.9L218.36-5.9Q215.76-4.5 212.31-4.45L212.31-4.45Q211.91-4.05 211.64-3.73 211.36-3.4 211.36-3.2L211.36-3.2Q211.36-2.65 212.31-2.35 213.26-2.05 215.21-1.9L215.21-1.9Q216.71-1.8 218.54-1.28 220.36-0.75 221.41-0.1L221.41-0.1ZM212.61-8.55Q214.91-8.55 216.31-9.8 217.71-11.05 217.71-13.35L217.71-13.35Q217.71-15.1 216.46-16.2 215.21-17.3 213.26-17.3L213.26-17.3Q212.01-17.3 210.59-16.88 209.16-16.45 208.56-15.55L208.56-15.55Q208.26-15.15 207.96-14.03 207.66-12.9 207.66-12.3L207.66-12.3Q207.66-11.45 208.39-10.58 209.11-9.7 210.29-9.13 211.46-8.55 212.61-8.55L212.61-8.55ZM215.76 2.3Q213.01 2.05 211.89 1.83 210.76 1.6 210.06 1.3L210.06 1.3Q207.51 2.65 207.51 4.25L207.51 4.25Q207.51 5.75 209.06 6.53 210.61 7.3 212.61 7.3L212.61 7.3Q213.51 7.3 215.06 7.1 216.61 6.9 217.66 6.4L217.66 6.4Q218.36 6.05 218.71 5.73 219.06 5.4 219.06 4.55L219.06 4.55Q219.06 3.5 217.96 2.95 216.86 2.4 215.76 2.3L215.76 2.3Z" opacity="1" transform="matrix(1,0,0,1,0,0)" fill="white" class="slogan-text-1" id="SvgjsPath1118"></path></svg></g></svg></g></svg></g></svg></g><g transform="matrix(1,0,0,1,36.672,0)"><svg viewBox="0 0 118.656 102.75986308012807" height="102.75986308012807" width="118.656"><g><svg xmlns="http://www.w3.org/2000/svg" xmlns:xlink="http://www.w3.org/1999/xlink" version="1.1" x="0" y="0" viewBox="10.045999526977539 15.39900016784668 79.9070053100586 69.2020034790039" enable-background="new 0 0 100 100" xml:space="preserve" height="102.75986308012807" width="118.656" class="icon-icon-0" data-fill-palette-color="accent" id="SvgjsSvg1117"></svg></g></svg></g><g></g></svg></g></svg></g></svg></g></svg></g><defs><mask></mask></defs></svg></g></mask><linearGradient x1="0" x2="1" y1="0.5" y2="0.5" id="ae81dc0f-8207-49e9-a8b0-009866f1bf4c"><stop stop-color="#ffa62e" offset="0"></stop><stop stop-color="#f71b3d" offset="1"></stop></linearGradient><rect width="320" height="360" fill="url(#ae81dc0f-8207-49e9-a8b0-009866f1bf4c)" mask="url(#c948c8f1-2ccd-49ab-bd4c-ea3964777593)" data-fill-palette-color="secondary"></rect><mask id="5fbf1953-f450-47df-bffd-db1c412dcc08"><g id="SvgjsG1132"><svg viewBox="0 0 320 360" height="360" width="320"><g><svg></svg></g><g><svg viewBox="0 0 320 360" height="360" width="320"><g></g><g transform="matrix(1,0,0,1,80.42018312223865,90)"><svg viewBox="0 0 159.1596337555227 180" height="180" width="159.1596337555227"><g><svg viewBox="0 0 159.1596337555227 180" height="180" width="159.1596337555227"><g><svg viewBox="0 0 192 217.14048458471524" height="180" width="159.1596337555227"><g transform="matrix(1,0,0,1,0,111.49923805260514)"><svg viewBox="0 0 192 105.6412465321101" height="105.6412465321101" width="192"><g id="SvgjsG1131"><svg viewBox="0 0 192 105.6412465321101" height="105.6412465321101" width="192" id="SvgjsSvg1130"><g><svg viewBox="0 0 192 59.88990825688074" height="59.88990825688074" width="192"><g transform="matrix(1,0,0,1,0,0)"><svg width="192" viewBox="2.5 -33.75 108.98999786376953 34" height="59.88990825688074" data-palette-color="#ee3e38"></svg></g></svg></g><g transform="matrix(1,0,0,1,0,68.6292832293578)"><svg viewBox="0 0 192 37.01196330275229" height="37.01196330275229" width="192"><g transform="matrix(1,0,0,1,0,0)"><svg width="192" viewBox="3.049999952316284 -31.75 223.05999755859375 43" height="37.01196330275229" data-palette-color="url(#ae81dc0f-8207-49e9-a8b0-009866f1bf4c)"></svg></g></svg></g></svg></g></svg></g><g transform="matrix(1,0,0,1,36.672,0)"><svg viewBox="0 0 118.656 102.75986308012807" height="102.75986308012807" width="118.656"><g><svg xmlns="http://www.w3.org/2000/svg" xmlns:xlink="http://www.w3.org/1999/xlink" version="1.1" x="0" y="0" viewBox="10.045999526977539 15.39900016784668 79.9070053100586 69.2020034790039" enable-background="new 0 0 100 100" xml:space="preserve" height="102.75986308012807" width="118.656" class="icon-icon-0" data-fill-palette-color="accent" id="SvgjsSvg1128"><g fill="white"><path d="M70.947 51.604c0-2.5-2.034-4.533-4.534-4.533-2.499 0-4.534 2.033-4.534 4.533s2.035 4.534 4.534 4.534C68.913 56.139 70.947 54.104 70.947 51.604z" fill="white"></path><path d="M89.953 50.001L75.849 25.57v0.534h-9.79l-8.434 8.433c0.695 1.16 1.102 2.511 1.102 3.958 0 4.264-3.469 7.734-7.734 7.734-4.264 0-7.734-3.471-7.734-7.734 0-4.265 3.47-7.734 7.734-7.734 1.661 0 3.197 0.531 4.458 1.426l9.282-9.282h9.575l-4.332-7.505H44.934v13.484L30.046 43.771c0.642 1.127 1.013 2.427 1.013 3.813 0 4.265-3.47 7.733-7.734 7.733-4.265 0-7.734-3.469-7.734-7.733s3.469-7.734 7.734-7.734c1.72 0 3.306 0.571 4.592 1.525l13.816-13.816V15.399h-11.71L10.046 50.001l10.593 18.346 18.343-18.342h19.866c0.74-3.499 3.85-6.135 7.565-6.135 4.265 0 7.733 3.471 7.733 7.734 0 4.265-3.469 7.734-7.733 7.734-3.716 0-6.825-2.635-7.565-6.134H40.307L22.296 71.217l7.728 13.384h14.155v-6.6c-3.499-0.738-6.134-3.85-6.134-7.564 0-4.266 3.469-7.734 7.734-7.734 3.716 0 6.826 2.635 7.565 6.134h25.547v0.325L89.953 50.001z" fill="white"></path><path d="M18.792 47.584c0 2.5 2.034 4.534 4.534 4.534 2.5 0 4.534-2.034 4.534-4.534 0-2.499-2.034-4.534-4.534-4.534C20.826 43.05 18.792 45.085 18.792 47.584z" fill="white"></path><path d="M50.312 70.437c0-2.5-2.034-4.534-4.534-4.534s-4.534 2.034-4.534 4.534c0 2.499 2.034 4.533 4.534 4.533S50.312 72.936 50.312 70.437z" fill="white"></path><path d="M50.993 33.961c-2.5 0-4.534 2.034-4.534 4.534 0 2.499 2.034 4.533 4.534 4.533s4.534-2.034 4.534-4.533C55.526 35.995 53.492 33.961 50.993 33.961z" fill="white"></path><path d="M47.378 78.001v6.6h22.598l7.255-12.564H53.344C52.714 75.019 50.36 77.372 47.378 78.001z" fill="white"></path></g></svg></g></svg></g><g></g></svg></g></svg></g></svg></g></svg></g><defs><mask></mask></defs><mask><g id="SvgjsG1127"><svg viewBox="0 0 320 360" height="360" width="320"><g><svg></svg></g><g><svg viewBox="0 0 320 360" height="360" width="320"><g></g><g transform="matrix(1,0,0,1,80.42018312223865,90)"><svg viewBox="0 0 159.1596337555227 180" height="180" width="159.1596337555227"><g><svg viewBox="0 0 159.1596337555227 180" height="180" width="159.1596337555227"><g><svg viewBox="0 0 192 217.14048458471524" height="180" width="159.1596337555227"><g transform="matrix(1,0,0,1,0,111.49923805260514)"><svg viewBox="0 0 192 105.6412465321101" height="105.6412465321101" width="192"><g id="SvgjsG1126"><svg viewBox="0 0 192 105.6412465321101" height="105.6412465321101" width="192" id="SvgjsSvg1125"><g><svg viewBox="0 0 192 59.88990825688074" height="59.88990825688074" width="192"><g transform="matrix(1,0,0,1,0,0)"><svg width="192" viewBox="2.5 -33.75 108.98999786376953 34" height="59.88990825688074" data-palette-color="#ee3e38"></svg></g></svg></g><g transform="matrix(1,0,0,1,0,68.6292832293578)"><svg viewBox="0 0 192 37.01196330275229" height="37.01196330275229" width="192"><g transform="matrix(1,0,0,1,0,0)"><svg width="192" viewBox="3.049999952316284 -31.75 223.05999755859375 43" height="37.01196330275229" data-palette-color="url(#ae81dc0f-8207-49e9-a8b0-009866f1bf4c)"></svg></g></svg></g></svg></g></svg></g><g transform="matrix(1,0,0,1,36.672,0)"><svg viewBox="0 0 118.656 102.75986308012807" height="102.75986308012807" width="118.656"><g><svg xmlns="http://www.w3.org/2000/svg" xmlns:xlink="http://www.w3.org/1999/xlink" version="1.1" x="0" y="0" viewBox="10.045999526977539 15.39900016784668 79.9070053100586 69.2020034790039" enable-background="new 0 0 100 100" xml:space="preserve" height="102.75986308012807" width="118.656" class="icon-icon-0" data-fill-palette-color="accent" id="SvgjsSvg1123"></svg></g></svg></g><g></g></svg></g></svg></g></svg></g></svg></g><defs><mask></mask></defs></svg></g></mask></svg></g></mask><linearGradient x1="0" x2="1" y1="0.5" y2="0.5" id="9fd01423-bb6d-4ba5-90c0-be6e961eb828"><stop stop-color="#ffa62e" offset="0"></stop><stop stop-color="#f71b3d" offset="1"></stop></linearGradient><rect width="320" height="360" fill="url(#9fd01423-bb6d-4ba5-90c0-be6e961eb828)" mask="url(#5fbf1953-f450-47df-bffd-db1c412dcc08)" data-fill-palette-color="accent"></rect></svg><rect width="320" height="360" fill="none" stroke="none" visibility="hidden"></rect></g></svg></g></svg>